<?xml version="1.0" encoding="UTF-8" standalone="no"?>
<!-- Created with Inkscape (http://www.inkscape.org/) -->

<svg
   xmlns:dc="http://purl.org/dc/elements/1.1/"
   xmlns:cc="http://creativecommons.org/ns#"
   xmlns:rdf="http://www.w3.org/1999/02/22-rdf-syntax-ns#"
   xmlns:svg="http://www.w3.org/2000/svg"
   xmlns="http://www.w3.org/2000/svg"
   xmlns:sodipodi="http://sodipodi.sourceforge.net/DTD/sodipodi-0.dtd"
   xmlns:inkscape="http://www.inkscape.org/namespaces/inkscape"
   width="312"
   height="128"
   id="svg3800"
   version="1.1"
   inkscape:version="0.48.5 r10040"
   sodipodi:docname="New document 3">
  <defs
     id="defs3802" />
  <sodipodi:namedview
     id="base"
     pagecolor="#ffffff"
     bordercolor="#666666"
     borderopacity="1.0"
     inkscape:pageopacity="0.0"
     inkscape:pageshadow="2"
     inkscape:zoom="2.75"
     inkscape:cx="139.16536"
     inkscape:cy="61.090909"
     inkscape:current-layer="layer1"
     showgrid="true"
     inkscape:document-units="px"
     inkscape:grid-bbox="true"
     inkscape:window-width="1879"
     inkscape:window-height="1058"
     inkscape:window-x="41"
     inkscape:window-y="0"
     inkscape:window-maximized="1" />
  <metadata
     id="metadata3805">
    <rdf:RDF>
      <cc:Work
         rdf:about="">
        <dc:format>image/svg+xml</dc:format>
        <dc:type
           rdf:resource="http://purl.org/dc/dcmitype/StillImage" />
        <dc:title></dc:title>
      </cc:Work>
    </rdf:RDF>
  </metadata>
  <g
     id="layer1"
     inkscape:label="Layer 1"
     inkscape:groupmode="layer"
     transform="translate(0,64)">
    <path
       id="path3137"
       style="fill:#231f20;fill-opacity:1;fill-rule:nonzero;stroke:none"
       d="m 187.80074,-33.614451 c -1.94946,-3.409425 -3.6267,-5.191038 -5.47485,-5.4126 -1.87439,-0.2246 -3.51624,1.064462 -5.34301,3.801887 -0.69214,-0.02625 -1.38916,-0.03787 -2.09108,-0.0385 -1.79198,-3.568725 -3.36363,-5.390625 -5.32165,-5.401 0,0 -0.005,0 -0.005,0 -2.06358,-0.01 -3.96483,2.095938 -6.44408,6.400138 -0.39368,0.0635 -0.78858,0.130012 -1.18408,0.198975 -3.09021,-3.5852 -5.28382,-5.2362 -7.25158,-4.90295 -2.17774,0.36865 -3.45033,2.883912 -4.66737,7.60925 0,0 0.19104,0.04825 0.19104,0.04825 -0.41321,0.119625 -0.82641,0.241687 -1.2384,0.3662 0,0 0.3064,-0.273438 0.3064,-0.273438 -2.71667,-3.062737 -4.81323,-4.39025 -6.84387,-3.789662 -2.6593,0.784912 -4.48791,5.469962 -4.78882,7.96935 -0.58899,0.227662 -1.17736,0.457775 -1.76148,0.691537 0,0 -0.96007,-0.473025 -0.96007,-0.473025 -3.396,-2.274787 -5.7489,-3.07495 -7.53785,-2.238775 -1.37268,1.259163 -2.29248,3.969725 -2.90161,7.671513 -1.81274,0.850825 -4.69177,-5.9198 -9.07654,-3.511963 -1.88171,1.033325 -2.59583,4.0509 -2.84973,9.520263 0,0 0.0125,6.12e-4 0.0125,6.12e-4 -0.0495,0.02562 -0.0989,0.0525 -0.14831,0.07937 -4.17297,-2.135012 -6.86157,-2.767337 -8.6383,-1.615 -1.71265,1.11145 -2.18689,3.568125 -1.93481,7.6245131 -0.15992,0.09525 -0.318,0.19165 -0.47669,0.286262 -4.113777,-2.4426251 -6.773689,-3.3929501 -8.588877,-2.3419251 -1.826162,1.056525 -2.277212,3.7854001 -1.927487,8.6694381 -0.494388,0.278925 -0.994263,0.556637 -1.496575,0.832512 -3.607788,-2.062987 -6.041875,-2.733762 -7.780763,-1.811512 -1.773074,0.941162 -2.438962,3.24278701 -2.487187,7.10815 -0.283813,0.137937 -0.56945,0.275262 -0.8551,0.413212 -3.628537,-2.44385 -6.076662,-3.47656199 -7.88635,-2.715462 -1.887212,0.795287 -2.599487,3.184212 -2.658087,7.53785 -0.574338,0.249625 -1.150513,0.499875 -1.729125,0.7489 -4.032588,-2.526863 -6.705925,-3.507088 -8.603514,-2.72095 -2.000125,0.82885 -2.749637,3.226925 -2.841187,7.4163749 -0.2362,0.094 -0.4718,0.186162 -0.708013,0.277712 -3.5675,-2.499387 -5.997925,-3.6206 -7.819825,-3.012087 -1.952512,0.653687 -2.760612,2.89185 -2.92785,7.055062 -0.10315,0.0385 -0.206913,0.07512 -0.310063,0.112875 -3.171387,-2.589112 -5.436399,-3.606562 -7.294911,-2.934575 -1.870125,0.676888 -2.893688,2.877813 -3.583988,6.7212 -0.245362,0.08175 -0.490112,0.162963 -0.73425,0.245363 -3.334362,-3.208625 -5.653087,-4.691163 -7.62635,-4.119875 -2.009275,0.582275 -3.0835,3.0725 -3.875725,7.794187 -5.4828,1.674188 -10.7067874,3.159788 -15.5066004,4.418938 0,0 -0.244137,2.72645 -0.244137,2.72645 27.2802754,12.510989 42.7960244,11.534429 62.4133254,9.550159 4.105838,-0.19775 8.1958,-0.61278 12.268075,-1.19995 6.286,-0.54442 13.16345,-0.96435 20.9851,-0.9552 8.042004,0.006 17.160044,0.82398 26.622314,1.66993 36.10596,3.23181 77.09473,6.90002 86.72973,-31.204227 1.31226,-5.1837119 1.43739,-10.38146189 0.4889,-15.4687499 -0.97107,-5.211175 -3.06457,-10.2911371 -6.15784,-15.1080251 -4.91333,-7.648325 -11.64551,-12.136237 -19.43421,-14.317025 0,0 0,0 0,0 z"
       inkscape:connector-curvature="0" />
    <path
       id="path3139"
       style="fill:#ffffff;fill-opacity:1;fill-rule:nonzero;stroke:none"
       d="m 82.043911,1.9958991 c 0.09277,-1.78222499 0.358887,-2.80089999 0.891125,-3.082275 0.573112,-0.30395 1.6693,0.0012 3.384387,0.88257501 -1.395862,0.738525 -2.825312,1.47154999 -4.275512,2.19969999 0,0 0,0 0,0 z m -11.413563,5.395512 c 0.07506,-2.186275 0.324088,-3.33985 0.84655,-3.560787 0.585938,-0.245363 1.784675,0.284425 3.6847,1.4917 -1.489875,0.6964 -3.002937,1.386712 -4.53125,2.069087 0,0 0,0 0,0 z M 57.447972,12.970636 c 0.100088,-2.138062 0.396114,-3.3129869 1.013176,-3.5711749 0.719,-0.296012 2.075813,0.197763 4.213263,1.4312749 -1.731563,0.723275 -3.474125,1.437388 -5.226439,2.1399 0,0 0,0 0,0 z m -11.437987,4.4049 c 0.123287,-2.008662 0.391837,-3.049925 0.897212,-3.218375 0.6134,-0.205087 1.790775,0.333863 3.61145,1.52405 -1.50085,0.573725 -3.005987,1.139525 -4.508662,1.694325 0,0 0,0 0,0 z m -10.971687,3.905038 c 0.392463,-1.74195 0.827025,-2.7124 1.402588,-2.92115 0.591437,-0.2124 1.589974,0.245975 3.089599,1.35865 -1.503288,0.532225 -3.001099,1.051637 -4.492187,1.5625 0,0 0,0 0,0 z m -12.292475,4.030762 c 0.475463,-2.548837 0.950925,-3.863525 1.572263,-4.041137 0.63965,-0.186163 1.829225,0.632925 3.692625,2.360837 -1.7749,0.575563 -3.529663,1.135863 -5.264888,1.6803 0,0 0,0 0,0 z m 92.807617,-42.269287 c 0.21362,-3.2666 0.56457,-5.015263 1.24206,-5.386963 0.62013,-0.340575 2.07948,0.527338 4.55445,2.460325 -1.98914,0.971063 -3.92334,1.950075 -5.79651,2.926638 0,0 0,0 0,0 z m -10.87646,5.997925 c -0.0549,-1.9983 0.13671,-3.155525 0.67932,-3.508913 0.59326,-0.384525 1.8634,-0.07325 3.94165,0.880125 -1.61134,0.8966 -3.15491,1.775513 -4.62097,2.628788 0,0 0,0 0,0 z m -11.017457,6.6717501 c -0.149537,-2.742925 -0.0025,-4.208988 0.57555,-4.543463 0.593875,-0.343012 2.000125,0.216675 4.329838,1.542363 -0.430913,0.267337 -0.851438,0.529787 -1.259763,0.784912 -1.177375,0.740363 -2.395025,1.480713 -3.645625,2.216188 0,0 0,0 0,0 z M 180.35263,-34.995064 c 0.65429,-0.815425 1.18652,-1.201175 1.63512,-1.147462 0.52308,0.06288 1.1261,0.603025 1.8573,1.63025 -1.14685,-0.204463 -2.31262,-0.36255 -3.49242,-0.482788 0,0 0,0 0,0 z m -13.55653,0.2179 c 1.24818,-2.005625 2.12098,-2.991337 2.76368,-2.987675 0,0 -0.005,0 -0.005,0 0.55846,0.0025 1.23717,0.872188 2.1405,2.578125 -1.6156,0.07875 -3.25074,0.2179 -4.89869,0.40955 0,0 0,0 0,0 z m -25.86851,6.50695 c 0.86609,-2.434687 1.58935,-3.733512 2.3236,-3.949587 0.6305,-0.185538 1.62171,0.528575 3.09326,2.092287 -1.81274,0.5835 -3.62121,1.20545 -5.41686,1.8573 0,0 0,0 0,0 z m 12.31444,-3.878775 c 0.71227,-2.518925 1.297,-3.836062 1.92687,-3.942262 0.66224,-0.11175 1.76514,0.774537 3.47108,2.661737 -1.79199,0.3772 -3.59558,0.806275 -5.39795,1.280525 0,0 0,0 0,0 z m -25.81298,9.40185 c 0.22461,-2.177125 0.578,-3.391725 1.18225,-3.674312 0.63843,-0.298463 1.87928,0.203237 3.8678,1.4685 -1.70532,0.717775 -3.39111,1.455075 -5.05005,2.205812 0,0 0,0 0,0 z"
       inkscape:connector-curvature="0" />
    <path
       id="path3141"
       style="fill:#ffffff;fill-opacity:1;fill-rule:nonzero;stroke:none"
       d="m 177.91122,-32.260076 c 0,0 0.47607,0.276487 0.47607,0.276487 0.047,-0.08063 0.0946,-0.158087 0.13855,-0.236212 2.53724,0.178225 4.99573,0.545662 7.35291,1.12915 0.0561,0.105625 0.11288,0.2118 0.16968,0.320437 0,0 0.35217,-0.18615 0.35217,-0.18615 7.42004,1.950675 13.8031,6.08215 18.38867,13.221438 2.89733,4.512937 4.85352,9.2449871 5.75317,14.0722621 0.87036,4.673463 0.75256,9.45495 -0.45349,14.2327879 -1.01135,3.995975 -2.40783,7.49695 -4.13635,10.565787 -24.62036,-11.9573869 -52.30041,-3.276975 -81.69737,5.942388 -15.00671,4.705812 -30.465706,9.55445 -46.127944,11.808479 -3.371575,0.29296 -6.563712,0.61828 -9.641112,0.93383 -0.773926,0.0787 -1.538688,0.15687 -2.297363,0.23438 -0.769037,0.0366 -1.538087,0.0678 -2.306512,0.0885 0,0 0.003,0.1416 0.003,0.1416 C 46.600135,41.974538 32.179973,42.455498 8.8370726,32.432911 23.314011,28.456474 40.915323,22.698411 57.800099,15.954649 72.969161,9.8981241 87.573649,3.0408241 98.846236,-4.0447509 112.91179,-12.885076 141.53239,-28.747501 166.64408,-31.828564 c 2.17774,-0.267325 4.328,-0.4364 6.43921,-0.496825 0.008,0.01825 0.014,0.03475 0.0226,0.0525 0,0 0.12387,-0.0555 0.12387,-0.0555 1.58508,-0.04212 3.14635,-0.02075 4.68139,0.06837 0,0 0,0 0,0 z"
       inkscape:connector-curvature="0" />
    <path
       id="path3143"
       style="fill:#ffffff;fill-opacity:1;fill-rule:nonzero;stroke:none"
       d="m 125.88609,29.611261 c 0.44372,1.508175 1.22375,3.649288 2.18261,5.68115 0.57984,1.234738 1.73156,3.12195 2.82715,4.699097 -1.49414,-0.13001 -2.98462,-0.26428 -4.46472,-0.39551 -9.51478,-0.85327 -18.68592,-1.672974 -26.885994,-1.682124 -0.667725,0 -1.32995,0.0025 -1.98425,0.0088 9.320674,-2.3529 18.520514,-5.237425 27.556764,-8.070675 0.25635,-0.08175 0.51148,-0.161138 0.76844,-0.241088 0,0 0,0 0,0 z"
       inkscape:connector-curvature="0" />
    <path
       id="path3145"
       style="fill:#ffffff;fill-opacity:1;fill-rule:nonzero;stroke:none"
       d="m 138.53623,25.715386 c 0.50171,2.298588 1.35865,4.836425 2.45972,7.197263 1.09009,2.340087 3.31359,5.948489 5.17821,8.214109 -4.45251,-0.23986 -8.93432,-0.58898 -13.37585,-0.97106 -1.19323,-1.593024 -2.74108,-4.041137 -3.41796,-5.480349 -0.94482,-2.009275 -1.70777,-4.094238 -2.11731,-5.496213 3.79027,-1.187137 7.54944,-2.356575 11.27319,-3.46375 0,0 0,0 0,0 z"
       inkscape:connector-curvature="0" />
    <path
       id="path3147"
       style="fill:#ffffff;fill-opacity:1;fill-rule:nonzero;stroke:none"
       d="m 155.08834,21.295824 c 0.38696,2.7826 1.38428,5.803225 2.56714,8.615112 1.67847,3.986825 4.29566,8.7555 5.87891,11.411142 -4.97559,0.21972 -10.12085,0.14526 -15.31861,-0.094 -1.83653,-1.7981 -4.66734,-6.279917 -5.90148,-8.928229 -1.07421,-2.3053 -1.90735,-4.779663 -2.37976,-6.9989 5.12207,-1.502075 10.177,-2.875375 15.1538,-4.005138 0,0 0,0 0,0 z"
       inkscape:connector-curvature="0" />
    <path
       id="path3149"
       style="fill:#ffffff;fill-opacity:1;fill-rule:nonzero;stroke:none"
       d="m 180.37215,39.099788 c -1.156,-1.182252 -3.58276,-5.261839 -5.61035,-10.244139 -1.32873,-3.261113 -2.44262,-6.882938 -2.85705,-10.301513 11.39893,-0.983887 22.28454,0.181263 32.50672,5.075063 -5.6482,8.3429 -14.08632,13.020637 -24.03932,15.470589 0,0 0,0 0,0 z"
       inkscape:connector-curvature="0" />
    <path
       id="path3151"
       style="fill:#ffffff;fill-opacity:1;fill-rule:nonzero;stroke:none"
       d="m 170.45455,18.689024 c 0.42787,3.571162 1.58448,7.334587 2.9602,10.714712 1.77369,4.354863 3.97889,8.110963 5.49378,10.038452 -4.38049,0.96925 -9.03748,1.53199 -13.8623,1.80481 -1.25549,-2.08922 -4.18945,-7.478637 -6.05041,-11.898799 -1.15784,-2.752075 -2.1283,-5.696413 -2.4823,-8.36975 4.72167,-1.027838 9.37072,-1.825563 13.94103,-2.289425 0,0 0,0 0,0 z"
       inkscape:connector-curvature="0" />
    <path
       id="path3153"
       style="fill:#ffffff;fill-opacity:1;fill-rule:evenodd;stroke:none"
       d="m 144.12278,8.6639991 c 2.13683,12.1221869 -9.87183,24.2773369 -9.5636,35.6262089 3.48755,0.18738 6.15967,-2.3053 7.01355,-2.45605 -0.5835,0.1025 -1.18774,3.06153 -1.52222,6.39588 2.60682,-0.28015 5.51575,-3.3014 6.15662,-3.41431 0.20386,1.92077 -0.70008,4.79553 -0.48035,5.65368 20.94847,-9.7998 31.13707,-32.382809 30.6256,-39.656372 0,0 -32.2296,-2.1490369 -32.2296,-2.1490369 0,0 0,0 0,0 z"
       inkscape:connector-curvature="0" />
    <path
       id="path3155"
       style="fill:#231f20;fill-opacity:1;fill-rule:nonzero;stroke:none"
       d="m 155.75424,42.427428 c -3.58582,-0.71717 -7.06177,-1.96168 -10.1184,-3.850717 -2.5409,-1.566775 -4.79493,-3.580325 -6.5802,-6.103512 0.51575,-1.195075 1.06445,-2.400513 1.61499,-3.6084 4.469,-9.8175 6.87012,-15.645138 2.75391,-25.6274379 0.66589,7.0684749 -0.3296,14.1369629 -5.39979,24.4244379 -2.55676,5.614625 -5.07262,11.140749 -4.92309,16.670529 0,0 0.0373,1.33545 0.0373,1.33545 2.1399,0.11475 3.88307,0.0537 5.90515,-0.85877 -0.29175,1.67603 -0.448,3.36732 -0.61828,5.06043 2.03613,-0.32104 3.16772,-0.77393 6.11085,-2.10144 -0.28383,1.7688 -0.22828,3.00781 0.21972,4.76013 9.13634,-4.27429 16.47399,-9.97742 22.65074,-17.974854 7.3584,-9.529413 11.04188,-17.779538 9.80469,-29.4158879 -1.9934,9.3572999 -3.82263,17.7026379 -12.10388,27.6422129 -2.60437,3.370362 -5.72143,6.685789 -9.35363,9.647829 0,0 0,0 0,0 z"
       inkscape:connector-curvature="0" />
    <path
       id="path3157"
       style="fill:#ffffff;fill-opacity:1;fill-rule:nonzero;stroke:none"
       d="m 138.08945,34.808399 c 1.81763,2.27845 3.99353,4.136359 6.40015,5.621949 2.76855,1.7096 5.84228,2.92725 9.02525,3.7262 0,0 -6.07542,3.82935 -6.07542,3.82935 0,0 0.0489,-4.87794 0.0489,-4.87794 0,0 -5.70739,2.96937 -5.70739,2.96937 0,0 -0.45532,-5.68177 -0.45532,-5.68177 0,0 -5.27283,2.33887 -5.27283,2.33887 0,0 2.03674,-7.926029 2.03674,-7.926029 0,0 0,0 0,0 z"
       inkscape:connector-curvature="0" />
    <path
       id="path3159"
       style="fill:#ffffff;fill-opacity:1;fill-rule:evenodd;stroke:none"
       d="M 70.751186,19.284724 C 71.070411,31.588799 57.39121,41.830498 56.01486,53.098808 c 3.420413,0.70252 6.433726,-1.36597 7.299201,-1.38793 -0.592038,0.0146 -1.626588,2.85095 -2.453,6.099231 2.620237,0.10925 5.945425,-2.448121 6.594237,-2.463981 -0.0824,1.929321 -1.402587,4.638061 -1.312262,5.519411 22.169187,-6.585701 35.593264,-27.41089 36.165164,-34.679578 0,0 -31.557014,-6.901237 -31.557014,-6.901237 0,0 0,0 0,0 z"
       inkscape:connector-curvature="0" />
    <path
       id="path3161"
       style="fill:#231f20;fill-opacity:1;fill-rule:nonzero;stroke:none"
       d="m 77.250823,54.398858 c -3.439937,-1.24085 -6.691287,-2.98767 -9.435425,-5.30701 -2.280275,-1.9281 -4.211425,-4.25231 -5.603637,-7.01171 0.689087,-1.10719 1.410525,-2.21498 2.132575,-3.32948 5.87585,-9.046009 9.11255,-14.453734 6.522825,-24.937134 -0.390013,7.08985 -2.420663,13.933112 -8.960575,23.3545 -3.361813,5.174564 -6.668089,10.266724 -7.338251,15.757454 0,0 -0.16175,1.3269 -0.16175,1.3269 2.099,0.42968 3.831788,0.62622 5.966801,0.0263 -0.535888,1.61376 -0.943,3.262321 -1.3623,4.910881 2.061762,-0.0146 3.248287,-0.2948 6.355587,-1.17005 -0.5426,1.70472 -0.671387,2.94007 -0.487675,4.73755 9.667975,-2.87231 17.769163,-7.424921 25.064088,-14.419551 8.690187,-8.33252 13.555304,-15.945434 14.055174,-27.637947 -3.35876,8.960575 -6.402587,16.942138 -16.066287,25.545047 -3.07495,2.94739 -6.649775,5.76355 -10.68115,8.1543 0,0 0,0 0,0 z"
       inkscape:connector-curvature="0" />
    <path
       id="path3163"
       style="fill:#ffffff;fill-opacity:1;fill-rule:nonzero;stroke:none"
       d="m 60.911098,44.246278 c 1.459963,2.52257 3.337413,4.682 5.495613,6.50695 2.485962,2.10205 5.34485,3.7616 8.374637,5.02381 0,0 -6.576537,2.886961 -6.576537,2.886961 0,0 0.770862,-4.816901 0.770862,-4.816901 0,0 -6.083362,2.09045 -6.083362,2.09045 0,0 0.391225,-5.68664 0.391225,-5.68664 0,0 -5.5603,1.53259 -5.5603,1.53259 0,0 3.187862,-7.53722 3.187862,-7.53722 0,0 0,0 0,0 z"
       inkscape:connector-curvature="0" />
    <path
       id="path3165"
       style="fill:#231f20;fill-opacity:1;fill-rule:nonzero;stroke:none"
       d="m 235.05417,-3.2396889 c 1.52038,1.7102 3.02185,3.23120001 4.28588,4.256588 1.46545,1.18835 2.80152,1.756587 3.85193,1.384887 0,0 0.56946,-0.355837 0.56946,-0.355837 0.64391,-0.623775 1.0376,-1.84569999 1.20849,-3.488763 0.14039,-1.334837 0.17151,-3.011475 0.108,-4.891362 0.96924,-0.302125 1.94031,-0.6073 2.91442,-0.9143 0.83253,1.856687 1.67237,3.516225 2.4347,4.7235 1.00037,1.58813701 2.06055,2.57812501 3.12988,2.63428701 0,0 0.67261,-0.112875 0.67261,-0.112875 1.0022,-0.41625 1.9342,-1.86401201 2.73499,-3.98437501 0.66711,-1.764525 1.33727,-4.129025 1.93847,-6.7956501 0.29603,-0.09825 0.58777,-0.197137 0.88257,-0.296625 0.63172,1.2762381 1.25306,2.3876881 1.8274,3.2263131 0.88927,1.295162 1.83166,2.083125 2.80517,2.133175 0,0 0.67505,-0.111125 0.67505,-0.111125 0.91248,-0.38025 1.75415,-1.584475 2.48351,-3.361213 0.56153,-1.3653501 1.12549,-3.1500251 1.64857,-5.1843251 0.60425,-0.2185 1.20483,-0.43945 1.80663,-0.662225 0.83497,1.906125 1.69252,3.65295 2.48842,4.9823 1.08642,1.8164001 2.23448,2.9718001 3.3728,3.0310001 0,0 0.67505,-0.111125 0.67505,-0.111125 1.10046,-0.459587 2.14843,-2.248537 3.03893,-4.8443621 0.69703,-2.033688 1.38612,-4.664913 1.98182,-7.554313 1.32018,2.284538 2.70752,4.477538 3.94165,6.116325 1.58691,2.1045 3.13903,3.414925 4.42443,3.250125 0,0 0.64027,-0.2362 0.64027,-0.2362 1.08092,-0.69275 1.90735,-2.988287 2.43468,-6.152962 0.40712,-2.45605 0.70557,-5.548088 0.85023,-8.839713 0.47485,-0.251475 0.9497,-0.502325 1.41724,-0.756837 2.32421,-1.260988 4.32556,-2.610475 6.02233,-4.017338 4.24865,-3.520512 6.64429,-7.427975 7.55067,-11.275637 0,0 10e-4,0.005 10e-4,0.005 0.9253,-3.9209 0.29969,-7.755125 -1.49231,-11.057138 -0.52307,-0.966187 -1.14624,-1.88415 -1.85485,-2.740475 -1.95618,-2.3584 -4.58802,-3.9862 -7.54212,-4.954225 -3.75732,-1.231687 -8.04687,-1.405637 -12.11121,-0.672 -4.0686,0.735475 -7.94921,2.392588 -10.87464,4.8169 -1.93602,1.604 -3.4558,3.542475 -4.35607,5.774538 -0.5664,0.172112 -1.07421,0.332637 -1.64856,0.512087 -9.06555,2.8479 -31.97327,10.046388 -41.32508,4.255363 -7.41576,-5.752563 -15.72754,-7.097163 -23.25072,-5.115963 -4.86634,1.281738 -9.38904,3.956913 -13.10548,7.7301 -3.69995,3.7561 -6.60766,8.59985 -8.26355,14.234013 -3.25866,11.0852 -1.68029,25.2429251 8.25379,40.162962 0,0 0.8844,1.329963 0.8844,1.329963 0,0 1.30737,-0.91615 1.30737,-0.91615 6.86402,-4.8113999 22.41822,-9.5873999 40.29542,-15.0750629 0.0885,-0.02687 0.17761,-0.05438 0.26611,-0.08175 0,0 0,0 0,0 z"
       inkscape:connector-curvature="0" />
    <path
       id="path3167"
       style="fill:#ffffff;fill-opacity:1;fill-rule:nonzero;stroke:none"
       d="m 194.05135,8.4851611 c -8.60717,-13.575437 -9.94506,-26.3049371 -7.0166,-36.2750251 1.50635,-5.124512 4.14002,-9.51965 7.48719,-12.91565 3.32824,-3.379512 7.35961,-5.770875 11.68761,-6.9104 6.65223,-1.7511 14.03627,-0.531 20.6421,4.638675 0,0 0.1361,0.09887 0.1361,0.09887 10.55115,6.58325 34.47754,-0.933837 43.94104,-3.907475 1.08765,-0.341787 2.0105,-0.632325 2.35353,-0.733637 0,0 0.7843,-0.233763 0.7843,-0.233763 0,0 0.2533,-0.772712 0.2533,-0.772712 0.65062,-1.980588 1.94457,-3.704225 3.656,-5.122063 2.49877,-2.070925 5.87218,-3.494875 9.45068,-4.141237 3.58459,-0.6482 7.33582,-0.505375 10.58472,0.558475 2.42492,0.795287 4.56298,2.101437 6.11083,3.970937 0.58717,0.7074 1.0962,1.458138 1.52283,2.242438 1.43494,2.646487 1.93665,5.718387 1.19569,8.857425 0,0 0.003,0.0063 0.003,0.0063 -0.75807,3.214725 -2.8186,6.525262 -6.5033,9.580075 -1.55213,1.286012 -3.38684,2.5232 -5.52552,3.683475 -0.81115,0.440675 -1.63635,0.876462 -2.47375,1.306762 0,0 -0.50537,-0.01125 -0.50537,-0.01125 -0.002,0.09038 -0.005,0.181275 -0.007,0.272213 -16.82923,8.560187 -38.7268,15.2826 -57.95105,21.1840871 -17.07641,5.24231301 -32.06299,9.843138 -39.82544,14.623413 0,0 0,0 0,0 z"
       inkscape:connector-curvature="0" />
    <path
       id="path3169"
       style="fill:#ffffff;fill-opacity:1;fill-rule:nonzero;stroke:none"
       d="m 255.42525,-9.6337389 c -0.44372,1.7566 -0.91186,3.309938 -1.38061,4.5459 -0.24231,0.643313 -0.45287,1.166388 -0.62072,1.54175 -0.0866,-0.175175 -0.20325,-0.387575 -0.35828,-0.632325 -0.64881,-1.030887 -1.36597,-2.434687 -2.08862,-4.017337 1.48071,-0.473625 2.96325,-0.951538 4.44824,-1.437988 0,0 0,0 0,0 z"
       inkscape:connector-curvature="0" />
    <path
       id="path3171"
       style="fill:#ffffff;fill-opacity:1;fill-rule:nonzero;stroke:none"
       d="m 265.63644,-13.091989 c -0.31372,1.046138 -0.62866,1.964725 -0.93995,2.720338 -0.15014,0.368037 -0.28381,0.6823751 -0.39794,0.9344501 -0.0292,-0.05375 -0.0659,-0.11225 -0.10862,-0.173338 -0.43945,-0.6408751 -0.92224,-1.4929251 -1.42273,-2.4841371 0.95764,-0.329588 1.91528,-0.661013 2.86927,-0.997313 0,0 0,0 0,0 z"
       inkscape:connector-curvature="0" />
    <path
       id="path3173"
       style="fill:#ffffff;fill-opacity:1;fill-rule:nonzero;stroke:none"
       d="m 291.66977,-23.763989 c -0.15687,2.498175 -0.40161,4.80835 -0.71717,6.701663 -0.25207,1.51795 -0.49621,2.698362 -0.71472,3.3844 -0.26978,-0.352788 -0.69275,-0.9137 -1.21765,-1.611325 -1.11023,-1.473388 -2.37305,-3.45825 -3.59253,-5.557863 2.13623,-0.947875 4.2218,-1.91895 6.24207,-2.916875 0,0 0,0 0,0 z"
       inkscape:connector-curvature="0" />
    <path
       id="path3175"
       style="fill:#ffffff;fill-opacity:1;fill-rule:nonzero;stroke:none"
       d="m 279.10018,-18.162789 c -0.45715,1.967163 -0.94543,3.736575 -1.43859,5.1709 -0.35401,1.031488 -0.65919,1.842038 -0.89539,2.35535 -0.13793,-0.256962 -0.32532,-0.601812 -0.57495,-1.017462 -0.69397,-1.160275 -1.46485,-2.73315 -2.23633,-4.485475 1.73401,-0.662225 3.45032,-1.336063 5.14526,-2.023313 0,0 0,0 0,0 z"
       inkscape:connector-curvature="0" />
    <path
       id="path3177"
       style="fill:#ffffff;fill-opacity:1;fill-rule:nonzero;stroke:none"
       d="m 241.9725,-5.3692139 c 0.0269,1.425788 -0.004,2.654425 -0.10312,3.61145 -0.033,0.310675 -0.0641,0.579838 -0.0959,0.80445001 -0.116,-0.12940001 -0.26733,-0.28320001 -0.46936,-0.44677501 -0.84472,-0.684825 -1.8628,-1.68275 -2.94922,-2.852787 1.19751,-0.36865 2.40417,-0.740363 3.61756,-1.116338 0,0 0,0 0,0 z"
       inkscape:connector-curvature="0" />
    <path
       id="path3179"
       style="fill:#231f20;fill-opacity:1;fill-rule:evenodd;stroke:none"
       d="m 299.42367,-51.840764 c -1.71082,-0.874025 -8.16528,-3.845212 -12.06909,-3.218387 -4.10705,0.659787 -5.32287,5.249025 2.77833,3.577275 0,0 3.98071,-0.821538 3.98071,-0.821538 0,0 5.31005,0.46265 5.31005,0.46265 0,0 0,0 0,0 z"
       inkscape:connector-curvature="0" />
    <path
       id="path3181"
       style="fill:#231f20;fill-opacity:1;fill-rule:nonzero;stroke:none"
       d="m 200.74753,-42.890576 c -1.45264,2.89185 -2.08985,6.22925 -1.64795,9.668587 1.1792,9.193113 9.63989,15.72815 18.833,14.547725 4.59717,-0.5896 8.52966,-3.000487 11.16455,-6.41235 2.40784,-3.117062 3.7323,-7.073975 3.49244,-11.24085 0,0 -25.42359,-7.440187 -25.42359,-7.440187 0,0 0.58837,3.279425 0.58837,3.279425 0,0 -7.00682,-2.40235 -7.00682,-2.40235 0,0 0,0 0,0 z"
       inkscape:connector-curvature="0" />
    <path
       id="path3183"
       style="fill:#f47216;fill-opacity:1;fill-rule:nonzero;stroke:none"
       d="m 228.71628,-35.546826 c 0.32409,3.33985 -0.68726,6.531987 -2.60988,9.020387 -1.9989,2.587288 -4.98046,4.414063 -8.46496,4.862063 -6.97021,0.895387 -13.38561,-4.05945 -14.28039,-11.030275 -0.34302,-2.674563 0.17455,-5.267338 1.33728,-7.497563 0,0 4.55932,1.563113 4.55932,1.563113 0,0 -0.49438,-2.757563 -0.49438,-2.757563 0,0 19.95301,5.839838 19.95301,5.839838 0,0 0,0 0,0 z"
       inkscape:connector-curvature="0" />
    <path
       id="path3185"
       style="fill:#ffffff;fill-opacity:1;fill-rule:evenodd;stroke:none"
       d="m 204.03243,-40.420476 c -1.19201,2.330925 -1.71935,5.030512 -1.36169,7.814325 0.94299,7.350462 7.70874,12.5763 15.0592,11.632687 7.11915,-0.913687 12.24426,-7.286975 11.7041,-14.364012 0,0 -20.67077,-6.049188 -20.67077,-6.049188 0,0 0.49438,2.757563 0.49438,2.757563 0,0 -5.22522,-1.791375 -5.22522,-1.791375 0,0 0,0 0,0 z"
       inkscape:connector-curvature="0" />
    <path
       id="path3187"
       style="fill:#231f20;fill-opacity:1;fill-rule:evenodd;stroke:none"
       d="m 220.43319,-35.465039 c -0.15136,-1.177975 -0.46509,-2.288812 -0.87524,-3.310537 0,0 -7.34741,-2.149663 -7.34741,-2.149663 -0.63844,1.872563 -1.0669,4.193113 -0.75745,6.611938 0.72998,5.679325 5.18615,9.815062 5.8136,9.733887 0.62928,-0.0805 3.89648,-5.208125 3.1665,-10.885625 0,0 0,0 0,0 z"
       inkscape:connector-curvature="0" />
    <path
       id="path3189"
       style="fill:#ffffff;fill-opacity:1;fill-rule:evenodd;stroke:none"
       d="m 218.82735,-38.441714 c -0.44677,0.715325 -0.65917,1.582638 -0.54321,2.47985 0.26611,2.0697 2.17041,3.54065 4.2389,3.274538 1.89086,-0.242313 3.28003,-1.8518 3.30383,-3.705438 0,0 -6.99952,-2.04895 -6.99952,-2.04895 0,0 0,0 0,0 z"
       inkscape:connector-curvature="0" />
    <path
       id="path3191"
       style="fill:#231f20;fill-opacity:1;fill-rule:nonzero;stroke:none"
       d="m 253.67538,25.653124 c -0.74585,-2.739863 -1.59546,-5.2539 -2.43347,-7.178338 -1.01684,-2.33215 -2.14906,-3.934325 -3.26538,-4.322512 0,0 -0.59876,-0.0855 -0.59876,-0.0855 -1.18346,0.06838 -2.3767,1.2793 -3.49243,3.135375 -0.3534,0.588387 -0.71411,1.253662 -1.07789,1.970212 -0.0817,-0.832512 -0.18127,-1.604 -0.29906,-2.298575 -0.37354,-2.199712 -1.01441,-3.80005 -1.92322,-4.423837 0,0 -0.5603,-0.239863 -0.5603,-0.239863 -1.12733,-0.23865 -2.53968,0.560913 -4.04603,1.977538 -1.14318,1.074825 -2.43164,2.5293 -3.703,4.1095 -3.80066,-3.022463 -7.43102,-7.328488 -11.0968,-11.6809129 -2.30591,-2.734375 -4.62402,-5.484612 -7.0398,-7.9895 -4.77355,-4.945675 -8.97093,-7.944337 -12.61779,-9.3469251 -3.46375,-1.333612 -6.47217,-1.269525 -9.04175,-0.086 -2.51831,1.1639501 -4.53063,3.3886751 -6.06628,6.4166251 -2.16125,4.25781301 -3.39355,10.174563 -3.77808,16.9317629 -0.108,1.887212 -0.0842,3.688362 0.0616,5.405887 0.80016,9.390875 5.27037,15.96375 12.18383,20.3418 6.75293,4.275517 15.80688,6.397697 25.9967,6.977537 5.72083,0.32715 11.82007,0.16724 18.078,-0.36621 7.74475,-0.66101 13.25745,0.3888 19.67652,1.60889 5.96191,1.13281 12.68372,2.41088 22.50061,2.67333 8.44177,0.22705 14.10828,-2.08801 16.85914,-5.17943 1.1914,-1.3385 1.86888,-2.82715 2.02452,-4.34937 0.16053,-1.544797 -0.21606,-3.100584 -1.13647,-4.544072 -1.17493,-1.8457 -3.28064,-3.499137 -6.31592,-4.651487 0.0763,-2.283938 0.0299,-4.362788 -0.14831,-6.008913 -0.23071,-2.130125 -0.75745,-3.703612 -1.60584,-4.373162 0,0 -0.54382,-0.275275 -0.54382,-0.275275 -1.2622,-0.357663 -3.05786,0.6659 -4.99878,2.410275 -1.81336,1.628425 -3.92212,3.92395 -5.79041,6.167 -0.036,-0.0025 -0.0732,-0.0063 -0.11112,-0.0088 -0.70497,-2.400513 -1.47767,-4.559938 -2.23328,-6.21215 -0.95215,-2.081913 -2.00684,-3.501588 -3.06336,-3.868413 0,0 -0.59754,-0.0855 -0.59754,-0.0855 -1.20666,0.06962 -2.42554,1.32995 -3.56384,3.2489 -0.72876,1.228025 -1.49718,2.790525 -2.23632,4.470825 -0.59754,-1.9281 -1.23535,-3.674312 -1.8628,-5.080562 -0.98328,-2.2052 -2.07703,-3.713375 -3.16223,-4.0918 0,0 -0.59876,-0.08487 -0.59876,-0.08487 -1.21581,0.07025 -2.45116,1.35925 -3.6029,3.31665 -0.94482,1.60705 -1.95435,3.762812 -2.87841,6.0022 -0.62379,-0.104375 -1.25306,-0.214238 -1.89088,-0.33265 0,0 0,0 0,0 z"
       inkscape:connector-curvature="0" />
    <path
       id="path3193"
       style="fill:#ffffff;fill-opacity:1;fill-rule:nonzero;stroke:none"
       d="m 211.89925,0.78923611 c 2.33948,2.42309999 4.62464,5.13427499 6.89637,7.82958799 5.95703,7.0690999 11.82617,14.0350369 18.93737,16.2420749 14.71193,4.564812 23.7494,5.256337 35.38636,6.14685 3.81469,0.29235 7.91199,0.605462 12.58057,1.086425 5.64818,0.58105 9.13878,2.463987 10.55847,4.692375 0.52368,0.823362 0.74219,1.697387 0.65246,2.553099 -0.0904,0.87891 -0.50537,1.76698 -1.24206,2.59339 -2.20276,2.47741 -7.02149,4.32434 -14.4513,4.12415 -9.66614,-0.25879 -16.203,-1.50148 -22.00439,-2.60499 -6.65832,-1.26525 -12.37671,-2.3529 -20.51758,-1.65894 -6.10229,0.52003 -12.05078,0.67444 -17.63549,0.35707 -9.7046,-0.55359 -18.25501,-2.52869 -24.50989,-6.490479 -6.09497,-3.85865 -10.03662,-9.664925 -10.74525,-17.972413 -0.13184,-1.555175 -0.15136,-3.208012 -0.0525,-4.964 0.36255,-6.3525369 1.48743,-11.84874989 3.44788,-15.7122749 1.21582,-2.396237 2.74292,-4.127812 4.59412,-4.981075 1.80236,-0.831912 3.99535,-0.844125 6.60949,0.161125 3.2428,1.248175 7.06177,4.002688 11.49536,8.59802501 0,0 0,0 0,0 z"
       inkscape:connector-curvature="0" />
    <path
       id="path3195"
       style="fill:#ffffff;fill-opacity:1;fill-rule:nonzero;stroke:none"
       d="m 283.29574,28.718924 c 1.38916,-1.583863 2.81311,-3.076775 4.05274,-4.190063 0.75011,-0.673825 1.35497,-1.201175 1.71447,-1.489262 0.0842,0.392462 0.16785,0.989387 0.25024,1.745 0.14039,1.304325 0.19044,2.937012 0.15199,4.75525 -1.06813,-0.23865 -2.21803,-0.425413 -3.44971,-0.551763 -0.92895,-0.09588 -1.83533,-0.185537 -2.71973,-0.269162 0,0 0,0 0,0 z"
       inkscape:connector-curvature="0" />
    <path
       id="path3197"
       style="fill:#ffffff;fill-opacity:1;fill-rule:nonzero;stroke:none"
       d="m 270.31295,27.658749 c 0.75379,-1.747438 1.54297,-3.376475 2.27905,-4.61915 0.35095,-0.5896 0.63294,-1.060788 0.81788,-1.35925 0.22887,0.379025 0.53284,0.986937 0.8905,1.766362 0.57312,1.257938 1.16639,2.855838 1.72912,4.654538 -0.90637,-0.07138 -1.79443,-0.139163 -2.66906,-0.205688 -1.03394,-0.07937 -2.04834,-0.158087 -3.04749,-0.236812 0,0 0,0 0,0 z"
       inkscape:connector-curvature="0" />
    <path
       id="path3199"
       style="fill:#ffffff;fill-opacity:1;fill-rule:nonzero;stroke:none"
       d="m 258.73824,26.470999 c 0.78796,-1.853638 1.61866,-3.594363 2.39441,-4.9115 0.36622,-0.623775 0.66284,-1.118775 0.85328,-1.427613 0.25024,0.410775 0.58532,1.092538 0.97961,1.974488 0.61035,1.3678 1.23901,3.115237 1.82984,5.07385 -2.01905,-0.19775 -4.01918,-0.425413 -6.05714,-0.709225 0,0 0,0 0,0 z"
       inkscape:connector-curvature="0" />
    <path
       id="path3201"
       style="fill:#ffffff;fill-opacity:1;fill-rule:nonzero;stroke:none"
       d="m 244.2314,23.501636 c 0.77394,-1.798087 1.58265,-3.462525 2.32667,-4.700925 0.32837,-0.546875 0.59205,-0.982662 0.766,-1.264037 0.27098,0.4425 0.6372,1.195075 1.06383,2.1759 0.62257,1.428225 1.25915,3.239137 1.85487,5.251462 -1.91224,-0.414425 -3.90443,-0.895987 -6.01137,-1.4624 0,0 0,0 0,0 z"
       inkscape:connector-curvature="0" />
    <path
       id="path3203"
       style="fill:#ffffff;fill-opacity:1;fill-rule:nonzero;stroke:none"
       d="m 234.83139,20.103811 c 1.16943,-1.448362 2.31323,-2.743525 3.28246,-3.656 0.39918,-0.375975 0.72449,-0.679325 0.94605,-0.885625 0.11538,0.411375 0.24292,1.038825 0.37842,1.832888 0.22827,1.34155 0.38208,3.013912 0.46142,4.87 -0.4132,-0.123875 -0.82885,-0.252075 -1.25061,-0.3827 -1.29883,-0.40405 -2.56896,-1.010738 -3.81774,-1.778563 0,0 0,0 0,0 z"
       inkscape:connector-curvature="0" />
    <path
       id="path3205"
       style="fill:#231f20;fill-opacity:1;fill-rule:evenodd;stroke:none"
       d="m 137.23801,-21.058301 c -2.33826,0.573737 -3.95507,2.23145 -3.62793,3.759162 0.33875,1.5686 2.60742,2.420038 5.05371,1.893313 1.05164,-0.22645 1.96961,-0.672613 2.64649,-1.2317 -0.0659,0.0165 -0.13184,0.03113 -0.19898,0.04575 -2.44506,0.527337 -4.71435,-0.324713 -5.0531,-1.893313 -0.19165,-0.894162 0.28259,-1.8335 1.17981,-2.57325 0,0 0,0 0,0 z M 91.489723,7.3022991 c -2.907725,1.182862 -4.6576,3.6694369 -3.90015,5.5364999 0.759888,1.864625 3.75,2.4237 6.658938,1.239625 0.6195,-0.2533 1.186525,-0.563963 1.688837,-0.916138 -2.652587,0.806888 -5.205075,0.194088 -5.899049,-1.510012 -0.596313,-1.4679 0.3595,-3.3190879 2.210087,-4.6185249 -0.252688,0.07688 -0.505375,0.164787 -0.758663,0.26855 0,0 0,0 0,0 z m 19.948117,-0.991213 c -3.49915,1.146238 -5.75318,3.9068629 -5.0238,6.1560129 0.7312,2.25525 4.19495,3.165275 7.70935,2.023925 0.92224,-0.298463 1.75781,-0.709238 2.47925,-1.195075 -0.0113,0.0037 -0.022,0.0075 -0.0311,0.01 -3.5144,1.141362 -6.97753,0.231325 -7.70873,-2.024525 -0.53955,-1.6644379 0.55298,-3.6077879 2.57507,-4.9700999 0,0 0,0 0,0 z m -3.9386,-12.516475 c -3.08289,2.036738 -4.53064,5.30945001 -3.22449,7.288813 1.30615,1.978762 4.88587,1.932375 7.96998,-0.10437499 0.004,-0.0025 0.008,-0.005 0.0127,-0.0088 -2.34314,0.74889999 -4.56481,0.39551199 -5.53405,-1.072388 -1.30555,-1.97631201 0.13671,-5.24292501 3.20861,-7.27905001 -0.81115,0.260013 -1.63879,0.651238 -2.43286,1.175538 0,0 0,0 0,0 z m 17.2815,-4.9450751 c -3.08411,2.0361381 -4.53248,5.3094501 -3.22571,7.2888251 1.30676,1.978763 4.88647,1.932375 7.96936,-0.104375 0.005,-0.0012 0.007,-0.005 0.0125,-0.0075 -2.34193,0.748913 -4.5636,0.395513 -5.53284,-1.0736 -1.30432,-1.9751 0.13672,-5.2417001 3.20984,-7.2790501 -0.8136,0.26 -1.64001,0.651238 -2.43286,1.176138 0,0 0,0 0,0 z m 5.5365,14.6453881 c -3.46558,1.283575 -5.61767,4.144287 -4.7937,6.368412 0.82275,2.2228999 4.32067,2.9894999 7.78442,1.7053249 0.76661,-0.285037 1.46973,-0.64515 2.09045,-1.059575 -3.34533,1.103513 -6.63208,0.314325 -7.42676,-1.8322749 -0.64208,-1.730962 0.52124,-3.848262 2.70325,-5.3064 -0.11962,0.03963 -0.23926,0.08 -0.35766,0.1245 0,0 0,0 0,0 z m 11.56127,-14.8675501 c -2.69165,0.815425 -4.52881,2.6623501 -4.32861,4.5947251 0.24475,2.3584 3.44178,3.970337 7.1167,3.588862 1.71204,-0.177 3.23302,-0.757437 4.34508,-1.564325 -0.59509,0.179438 -1.23107,0.30945 -1.89695,0.379025 -3.67433,0.381475 -6.87135,-1.231075 -7.1167,-3.589475 -0.13063,-1.25915 0.60668,-2.4829121 1.88048,-3.4088121 0,0 0,0 0,0 z m 11.89331,-11.922 c -2.69104,0.815437 -4.53003,2.662962 -4.32984,4.594725 0.24536,2.357787 3.44177,3.97095 7.1167,3.588875 1.71204,-0.177613 3.23425,-0.756838 4.3451,-1.56495 -0.59571,0.180662 -1.23048,0.310062 -1.89636,0.379037 -3.67494,0.382075 -6.87195,-1.231087 -7.1167,-3.588875 -0.13002,-1.259762 0.60668,-2.483512 1.8811,-3.408812 0,0 0,0 0,0 z m 8.62426,11.342775 c -2.83081,0.909425 -4.76684,2.8228751 -4.67468,4.9432371 0.12088,2.83325 3.8208,4.99085 8.2373,4.801025 2.1936,-0.09338 4.16017,-0.7489 5.57008,-1.732175 -0.95215,0.307 -2.00745,0.499875 -3.12195,0.547488 -4.41529,0.1892 -8.11646,-1.969 -8.23853,-4.802863 -0.0604,-1.426387 0.79712,-2.7594001 2.22778,-3.7567121 0,0 0,0 0,0 z m 10.77332,-15.156863 c -3.07435,1.016238 -5.1471,3.170775 -4.9115,5.418088 0.2954,2.822275 4.12293,4.747325 8.51868,4.2859 1.93847,-0.202638 3.67004,-0.836188 4.97802,-1.72425 -0.78491,0.260625 -1.63513,0.444337 -2.52991,0.538937 -4.39696,0.460825 -8.22265,-1.464225 -8.51867,-4.285887 -0.1654,-1.57715 0.80506,-3.107913 2.46338,-4.232788 0,0 0,0 0,0 z M 29.224098,27.147274 c -2.501225,0.6958 -4.219975,2.4237 -3.975837,4.155275 0.281375,1.979975 3.026125,3.239125 6.112062,2.802112 1.412963,-0.200187 2.658075,-0.72265 3.5669,-1.419062 -0.358287,0.0995 -0.731812,0.178225 -1.118775,0.23315 -3.08655,0.437625 -5.8307,-0.821525 -6.112062,-2.801513 -0.151975,-1.0736 0.451662,-2.144775 1.527712,-2.969962 0,0 0,0 0,0 z m 16.107174,-3.828738 c -2.105712,0.4718 -3.598025,1.879875 -3.399662,3.291625 0.2179,1.528325 2.333987,2.498775 4.716187,2.16125 1.213375,-0.1709 2.266238,-0.652462 2.979738,-1.28295 -0.172725,0.0385 -0.35095,0.072 -0.531013,0.097 -2.3822,0.337525 -4.4989,-0.63415 -4.716175,-2.16125 -0.1056,-0.749512 0.2655,-1.497187 0.950925,-2.105712 0,0 0,0 0,0 z m 12.445676,-4.594112 c -3.245238,1.319575 -5.199588,4.09545 -4.352413,6.1792 0.847162,2.081287 4.182737,2.70385 7.428588,1.38305 0.639038,-0.260013 1.228025,-0.576788 1.755975,-0.933838 -3.015737,0.9729 -5.950313,0.299075 -6.737063,-1.634525 -0.679925,-1.672362 0.444337,-3.7915 2.594001,-5.24475 -0.2301,0.07388 -0.4596,0.157475 -0.689088,0.250863 0,0 0,0 0,0 z"
       inkscape:connector-curvature="0" />
  </g>
</svg>
