<?xml version="1.0" encoding="UTF-8" standalone="no"?>
<!-- Created with Inkscape (http://www.inkscape.org/) -->

<svg
   xmlns:dc="http://purl.org/dc/elements/1.1/"
   xmlns:cc="http://creativecommons.org/ns#"
   xmlns:rdf="http://www.w3.org/1999/02/22-rdf-syntax-ns#"
   xmlns:svg="http://www.w3.org/2000/svg"
   xmlns="http://www.w3.org/2000/svg"
   xmlns:sodipodi="http://sodipodi.sourceforge.net/DTD/sodipodi-0.dtd"
   xmlns:inkscape="http://www.inkscape.org/namespaces/inkscape"
   width="120"
   height="82"
   id="svg4017"
   version="1.1"
   inkscape:version="0.48.5 r10040"
   sodipodi:docname="egg_blank.svg">
  <defs
     id="defs4019" />
  <sodipodi:namedview
     id="base"
     pagecolor="#ffffff"
     bordercolor="#666666"
     borderopacity="1.0"
     inkscape:pageopacity="0.0"
     inkscape:pageshadow="2"
     inkscape:zoom="7.9195959"
     inkscape:cx="43.27363"
     inkscape:cy="53.287827"
     inkscape:document-units="px"
     inkscape:current-layer="layer1"
     showgrid="false"
     inkscape:window-width="1879"
     inkscape:window-height="1058"
     inkscape:window-x="41"
     inkscape:window-y="0"
     inkscape:window-maximized="1" />
  <metadata
     id="metadata4022">
    <rdf:RDF>
      <cc:Work
         rdf:about="">
        <dc:format>image/svg+xml</dc:format>
        <dc:type
           rdf:resource="http://purl.org/dc/dcmitype/StillImage" />
      </cc:Work>
    </rdf:RDF>
  </metadata>
  <g
     inkscape:label="Layer 1"
     inkscape:groupmode="layer"
     id="layer1"
     transform="translate(0,-970.36217)">
    <path
       inkscape:connector-curvature="0"
       d="m 42.483859,1038.5764 c -8.345338,-2.312 -30.461425,-10.9144 -33.1298762,-22.9737 -0.02137,-0.098 -0.06225,-0.2417 -0.0915,-0.3381 -0.06713,-0.2149 -1.590575,-5.3455 2.4536132,-11.8079 4.835825,-7.73065 18.0896,-18.09076 53.7677,-23.54486 0.04025,-0.006 0.08425,-0.0134 0.12325,-0.022 0.229487,-0.0428 23.08715,-4.16504 36.579594,7.20094 6.86157,5.78002 10.25268,14.78512 10.07751,26.76142 -0.004,0.105 -0.53711,14.2212 -12.437752,22.8871 -12.072752,8.7927 -31.365965,9.4104 -57.342527,1.8371 0,0 0,0 0,0 z m 21.834712,-65.79835 c -31.041862,4.75708 -50.86975,13.89527 -58.9306632,27.16675 -2.9425,4.8461 -3.6682124,9.3042 -3.6682124,12.5219 0,2.8333 0.5566504,4.6863 0.6634504,5.0183 4.45435,18.5475 36.7474372,27.6637 38.1280632,28.0446 28.262324,8.2409 49.70275,7.2278 63.676141,-3.0249 14.76136,-10.8289 15.2887,-27.8065 15.30396,-28.5231 0.20874,-14.29071 -4.05701,-25.19768 -12.677,-32.44378 -16.017464,-13.46192 -41.055302,-9.02954 -42.495739,-8.75977 0,0 0,0 0,0 z"
       style="fill:#231f20;fill-opacity:1;fill-rule:nonzero;stroke:none"
       id="path504-5" />
    <path
       inkscape:connector-curvature="0"
       d="m 42.324013,1038.6549 c -8.365734,-2.321 -30.535868,-10.9569 -33.2108405,-23.0632 -0.02145,-0.098 -0.06245,-0.2427 -0.09172,-0.3393 -0.06726,-0.2159 -1.594457,-5.3665 2.4596175,-11.8541 4.847637,-7.7609 18.133805,-18.16142 53.89909,-23.63682 0.0403,-0.01 0.0844,-0.013 0.123551,-0.022 0.230041,-0.0432 23.14357,-4.18136 36.668979,7.229 6.87834,5.80256 10.27775,14.84282 10.10214,26.86592 -0.004,0.1054 -0.53842,14.2768 -12.468149,22.9764 -12.10225,8.8269 -31.442617,9.447 -57.482655,1.8441 l 0,0 z"
       style="fill:#ffffff;fill-opacity:1;fill-rule:nonzero;stroke:none"
       id="path504"
       sodipodi:nodetypes="cccccccccccc" />
    <path
       inkscape:connector-curvature="0"
       d="m 12.900505,1009.5543 c 0,0 6.316525,-16.84451 25.266725,-18.4241 0,0 -20.002438,8.949 -17.370613,18.4241 0,0 -7.896112,0 -7.896112,0 0,0 0,0 0,0 z"
       style="fill:#231f20;fill-opacity:1;fill-rule:nonzero;stroke:none"
       id="path506-0" />
  </g>
</svg>
